<?xml version="1.0" standalone="no"?>
<!DOCTYPE svg PUBLIC "-//W3C//DTD SVG 20010904//EN"
 "http://www.w3.org/TR/2001/REC-SVG-20010904/DTD/svg10.dtd">
<svg version="1.0" xmlns="http://www.w3.org/2000/svg"
 width="2515.000000pt" height="2515.000000pt" viewBox="0 0 2515.000000 2515.000000"
 preserveAspectRatio="xMidYMid meet">
<metadata>
Created by potrace 1.14, written by Peter Selinger 2001-2017
</metadata>
<g transform="translate(0.000000,2515.000000) scale(0.100000,-0.100000)"
fill="#000000" stroke="none">
<path d="M21414 25127 c-76 -37 -105 -84 -119 -199 -4 -28 -8 -60 -11 -71 -2
-11 -6 -41 -9 -66 -3 -25 -8 -59 -10 -76 -11 -62 -25 -141 -30 -175 -7 -42
-33 -185 -40 -220 -3 -14 -10 -45 -15 -70 -5 -25 -18 -88 -30 -140 -12 -52
-23 -103 -25 -112 -27 -129 -144 -489 -209 -641 -213 -500 -494 -831 -916
-1084 -255 -153 -641 -300 -1010 -387 -96 -22 -251 -56 -285 -62 -28 -5 -181
-32 -216 -39 -24 -5 -81 -14 -194 -31 -55 -8 -111 -17 -125 -19 -14 -2 -47 -7
-75 -10 -112 -14 -167 -45 -203 -117 -39 -79 -28 -167 29 -232 40 -45 73 -61
144 -71 22 -3 54 -7 70 -10 17 -3 48 -7 70 -10 22 -4 51 -8 65 -10 230 -37
308 -51 435 -76 83 -17 159 -32 170 -35 37 -7 230 -54 260 -64 27 -8 104 -29
130 -36 49 -12 243 -81 340 -119 597 -239 985 -594 1251 -1145 99 -206 225
-570 269 -778 2 -9 11 -48 20 -87 9 -38 18 -77 20 -85 2 -8 12 -60 24 -115 11
-55 25 -127 30 -160 13 -75 20 -113 26 -145 2 -14 11 -70 19 -125 9 -55 18
-118 21 -140 4 -22 8 -51 10 -64 2 -13 7 -44 11 -67 8 -54 69 -127 119 -144
144 -48 270 31 289 180 3 25 8 59 11 75 2 17 7 46 9 65 3 19 12 80 21 135 34
211 69 399 99 526 8 37 17 78 20 90 18 98 133 487 166 564 5 11 21 52 36 90
38 101 157 340 211 426 166 262 400 504 633 653 208 134 401 225 667 317 95
32 260 82 313 94 8 2 69 17 135 34 66 16 190 43 275 60 192 37 200 39 280 51
36 6 76 13 90 15 32 5 233 34 285 41 226 29 238 366 15 409 -19 3 -93 14 -140
20 -30 4 -247 38 -320 50 -31 6 -232 44 -282 55 -21 4 -38 6 -38 3 0 -2 -8 1
-17 6 -10 5 -36 12 -58 15 -78 13 -352 88 -510 141 -616 205 -1029 506 -1311
955 -87 137 -136 232 -203 390 -18 41 -36 84 -41 95 -10 22 -89 250 -95 275
-3 8 -9 31 -14 50 -55 199 -85 317 -107 425 -2 11 -15 74 -28 140 -14 66 -27
138 -30 160 -4 22 -13 76 -20 120 -8 44 -20 116 -26 160 -6 44 -14 94 -16 110
-3 17 -7 48 -10 69 -15 151 -165 237 -300 173z"/>
<path d="M12260 24659 c-84 -34 -124 -102 -134 -229 -4 -47 -9 -103 -11 -125
-6 -56 -16 -170 -21 -235 -2 -30 -6 -80 -9 -110 -3 -30 -7 -84 -10 -120 -3
-36 -8 -85 -10 -110 -6 -61 -14 -142 -21 -215 -3 -33 -7 -78 -9 -100 -2 -22
-7 -71 -10 -110 -4 -38 -8 -81 -10 -95 -2 -14 -7 -59 -10 -100 -4 -41 -8 -88
-10 -105 -2 -16 -6 -59 -10 -95 -3 -36 -7 -81 -10 -100 -3 -19 -7 -64 -10
-100 -3 -36 -7 -72 -10 -80 -2 -8 -7 -51 -10 -94 -4 -43 -8 -86 -10 -95 -1 -9
-6 -50 -10 -91 -4 -41 -9 -82 -10 -90 -1 -8 -6 -46 -10 -83 -3 -37 -8 -76 -10
-85 -1 -9 -6 -48 -10 -87 -4 -38 -8 -72 -10 -75 -1 -3 -6 -41 -10 -84 -4 -43
-8 -87 -10 -97 -2 -10 -6 -45 -10 -78 -3 -33 -8 -70 -10 -83 -3 -13 -7 -43
-10 -68 -12 -105 -17 -136 -20 -150 -2 -8 -7 -40 -10 -70 -4 -30 -13 -102 -21
-160 -8 -58 -17 -121 -20 -140 -10 -73 -91 -598 -99 -640 -3 -14 -7 -41 -10
-60 -3 -19 -7 -46 -10 -60 -3 -14 -7 -38 -10 -55 -3 -16 -7 -40 -9 -51 -2 -12
-7 -39 -10 -60 -4 -22 -18 -97 -31 -169 -13 -71 -26 -142 -29 -158 -3 -15 -7
-35 -10 -45 -3 -9 -7 -33 -10 -52 -4 -29 -69 -341 -81 -390 -4 -17 -34 -155
-41 -185 -8 -43 -67 -279 -110 -445 -25 -96 -47 -182 -49 -190 -20 -83 -151
-506 -211 -681 -55 -163 -150 -418 -184 -494 -10 -22 -21 -51 -25 -65 -4 -14
-20 -52 -36 -85 -15 -33 -48 -107 -74 -165 -49 -109 -178 -371 -235 -475 -152
-279 -415 -677 -585 -884 -171 -208 -472 -521 -632 -659 -755 -651 -1657
-1105 -2913 -1465 -136 -39 -377 -104 -420 -112 -8 -2 -62 -15 -120 -30 -108
-28 -128 -33 -169 -41 -12 -3 -53 -12 -90 -20 -36 -9 -77 -18 -91 -20 -14 -3
-41 -9 -60 -14 -47 -12 -611 -125 -725 -144 -49 -9 -100 -18 -111 -20 -12 -2
-39 -7 -60 -10 -22 -4 -55 -9 -74 -12 -19 -4 -44 -8 -55 -10 -11 -2 -31 -6
-45 -8 -28 -6 -65 -12 -190 -30 -25 -4 -70 -11 -100 -16 -30 -5 -73 -12 -95
-15 -22 -3 -51 -8 -65 -10 -31 -6 -62 -10 -165 -25 -44 -6 -91 -13 -105 -15
-14 -2 -47 -6 -75 -10 -27 -3 -61 -8 -75 -10 -14 -2 -63 -9 -110 -15 -47 -6
-96 -13 -110 -15 -36 -5 -195 -26 -315 -41 -22 -2 -56 -6 -75 -9 -68 -9 -116
-15 -170 -20 -30 -3 -66 -8 -80 -10 -14 -2 -50 -6 -80 -10 -30 -3 -71 -8 -90
-10 -19 -2 -60 -7 -90 -10 -30 -3 -66 -8 -80 -10 -14 -2 -56 -7 -95 -10 -38
-4 -90 -9 -115 -11 -25 -3 -61 -7 -80 -9 -88 -9 -158 -16 -190 -20 -19 -2 -64
-7 -100 -10 -36 -4 -78 -8 -95 -10 -16 -2 -66 -6 -110 -10 -44 -4 -91 -8 -105
-10 -14 -2 -54 -7 -90 -10 -131 -11 -166 -15 -205 -19 -22 -2 -80 -7 -130 -11
-49 -4 -97 -8 -105 -10 -8 -2 -58 -6 -110 -10 -52 -3 -106 -8 -120 -10 -14 -2
-61 -6 -105 -10 -44 -3 -100 -8 -125 -10 -25 -2 -76 -7 -115 -10 -38 -3 -83
-8 -100 -11 -148 -25 -208 -238 -98 -348 40 -40 72 -54 139 -60 225 -21 264
-25 354 -31 41 -3 91 -7 110 -10 19 -2 71 -7 115 -10 44 -3 96 -8 115 -10 19
-2 67 -7 105 -10 39 -4 86 -8 105 -10 19 -2 71 -7 115 -10 44 -4 91 -8 105
-10 38 -6 117 -14 195 -20 39 -3 86 -7 105 -10 19 -2 62 -7 95 -10 33 -3 74
-7 90 -9 17 -2 64 -7 105 -11 41 -3 86 -8 100 -10 14 -2 52 -7 85 -10 56 -5
93 -9 190 -20 22 -3 63 -7 90 -10 28 -3 66 -8 85 -10 19 -3 60 -8 90 -11 30
-3 69 -7 85 -9 17 -3 53 -7 80 -10 28 -3 66 -7 85 -10 19 -2 53 -7 75 -9 223
-28 280 -36 315 -41 23 -4 109 -15 235 -31 28 -3 57 -8 65 -9 9 -2 43 -6 75
-10 33 -4 67 -9 75 -10 8 -2 51 -8 95 -15 85 -12 112 -16 160 -24 34 -6 110
-17 140 -21 18 -3 176 -28 245 -40 149 -25 564 -98 620 -110 14 -3 41 -8 60
-11 19 -3 96 -19 170 -35 74 -15 146 -30 160 -33 143 -27 669 -153 865 -207
61 -17 117 -32 125 -34 8 -2 56 -16 105 -31 50 -14 95 -27 100 -28 62 -13 479
-152 685 -229 462 -173 942 -400 1260 -597 8 -5 35 -21 60 -36 64 -39 304
-198 355 -237 24 -17 56 -41 71 -52 36 -26 260 -205 299 -240 238 -209 407
-380 607 -615 48 -57 53 -63 178 -227 274 -359 560 -862 769 -1353 18 -41 36
-84 41 -95 56 -126 162 -414 251 -680 49 -148 182 -589 194 -645 2 -8 15 -60
29 -115 15 -55 29 -111 32 -125 3 -14 8 -34 11 -45 4 -11 8 -26 9 -32 1 -7 14
-63 29 -125 15 -62 29 -121 31 -131 2 -10 6 -26 8 -35 11 -35 96 -439 131
-627 14 -71 29 -152 35 -180 5 -27 12 -63 15 -80 3 -16 7 -41 9 -55 5 -25 44
-254 51 -300 2 -14 11 -68 20 -120 9 -52 18 -108 20 -123 9 -66 16 -116 25
-167 5 -30 12 -75 15 -100 3 -25 8 -57 11 -72 3 -15 7 -41 9 -58 11 -88 24
-179 31 -212 1 -9 5 -41 8 -70 4 -29 8 -63 10 -75 3 -12 8 -53 11 -90 4 -37 9
-70 10 -73 2 -3 6 -34 10 -69 4 -34 8 -70 10 -79 1 -9 6 -46 10 -82 4 -36 9
-74 11 -85 2 -11 6 -45 9 -76 3 -31 7 -64 9 -75 2 -10 7 -53 11 -94 4 -41 9
-83 10 -92 2 -9 6 -48 10 -85 3 -37 8 -79 10 -93 4 -25 10 -71 20 -180 3 -30
7 -71 10 -90 9 -75 16 -140 20 -186 4 -56 14 -152 20 -204 6 -48 13 -122 20
-200 3 -36 7 -76 10 -90 2 -14 7 -57 10 -96 3 -39 7 -95 10 -125 12 -123 19
-196 31 -329 6 -78 13 -146 19 -210 2 -30 7 -86 10 -125 4 -38 8 -90 10 -114
3 -24 7 -75 10 -115 10 -134 40 -192 119 -233 68 -35 198 -12 247 43 43 49 50
79 64 254 6 86 14 175 20 240 2 25 7 74 10 110 6 81 21 236 30 330 4 41 8 85
20 220 9 99 17 176 20 200 2 14 7 61 10 105 4 44 8 91 10 105 2 14 6 54 10 90
7 78 14 152 20 200 3 19 7 64 10 100 3 36 8 83 11 105 7 43 9 66 18 165 6 67
14 126 21 170 2 14 7 56 10 93 4 37 8 76 10 85 1 9 6 44 9 77 6 54 19 159 31
255 3 19 7 59 10 89 3 29 7 56 9 60 2 3 7 35 10 71 4 36 8 75 10 86 2 12 7 45
11 75 3 30 8 61 10 69 2 8 6 42 10 75 3 33 8 67 10 75 2 8 6 38 10 65 3 28 10
77 15 110 5 33 12 78 15 100 4 22 10 67 15 100 5 33 12 78 15 100 8 51 13 83
19 115 3 14 8 43 11 65 3 22 10 65 15 95 5 30 12 72 16 94 5 37 7 48 18 106 3
14 8 41 10 60 3 19 7 44 10 55 4 23 33 177 40 215 4 27 95 483 101 509 27 118
87 380 90 391 1 8 8 35 15 60 7 25 14 53 16 62 8 34 13 54 49 193 273 1049
630 1901 1083 2590 105 160 316 443 387 521 6 6 33 37 60 70 83 97 444 455
540 535 50 40 92 76 95 79 10 11 186 146 240 185 30 22 57 42 60 45 17 19 471
310 484 310 2 0 47 25 101 55 137 78 403 209 580 288 151 66 286 122 307 126
4 1 29 11 55 23 161 70 634 228 975 324 175 49 457 123 498 130 14 3 48 11 75
19 57 16 415 95 568 126 56 11 111 22 122 25 11 2 58 11 105 20 47 9 94 18
105 20 33 6 248 46 275 50 14 3 36 7 50 9 54 11 76 15 115 20 22 3 65 10 95
16 135 23 288 48 345 54 28 4 57 8 65 10 8 3 62 11 120 19 58 8 121 17 140 20
19 3 53 8 75 11 22 3 54 7 70 10 17 2 50 7 75 10 25 3 54 7 65 9 11 2 45 7 75
11 30 3 66 8 80 10 45 7 103 14 230 30 69 8 145 18 170 21 25 3 59 7 75 9 57
5 150 17 180 21 17 3 55 7 85 10 30 2 66 6 80 9 14 2 54 7 90 10 36 3 82 8
103 10 20 3 54 7 75 10 20 2 66 7 102 10 62 6 104 10 180 20 19 3 62 7 95 10
144 12 172 15 205 20 19 3 65 7 102 10 37 2 86 7 110 9 43 5 104 11 213 21 33
3 78 7 100 10 22 2 76 7 120 10 44 4 91 8 105 10 14 3 63 7 110 10 47 3 105 8
130 10 25 3 72 7 105 10 33 2 85 7 115 10 30 3 81 7 113 10 60 5 121 30 148
61 73 83 70 216 -6 294 -41 42 -82 56 -191 65 -38 3 -96 8 -129 11 -33 3 -82
7 -110 9 -27 2 -81 7 -120 11 -102 9 -121 11 -220 18 -49 4 -101 9 -115 11
-14 2 -59 6 -100 10 -41 3 -91 8 -110 10 -19 3 -69 7 -111 10 -42 3 -86 7 -97
10 -11 2 -56 6 -99 9 -43 4 -89 8 -103 10 -14 3 -59 7 -100 11 -41 4 -88 8
-104 10 -16 2 -59 6 -95 10 -66 6 -130 13 -186 20 -16 2 -61 7 -100 10 -38 4
-81 8 -94 10 -14 3 -54 7 -90 10 -36 4 -73 8 -81 10 -8 2 -51 7 -95 11 -44 3
-82 8 -85 9 -3 2 -39 6 -80 10 -41 3 -82 8 -90 10 -8 2 -44 7 -80 10 -36 4
-72 8 -80 10 -14 3 -76 10 -165 21 -22 2 -51 7 -65 9 -14 2 -47 7 -75 10 -124
15 -130 16 -265 35 -41 6 -93 13 -115 16 -22 3 -51 8 -65 10 -14 2 -43 7 -65
10 -72 9 -368 55 -450 69 -44 7 -98 16 -120 19 -22 4 -76 13 -120 21 -44 7
-93 16 -110 19 -40 6 -279 50 -335 61 -14 3 -38 8 -55 10 -16 3 -50 10 -75 15
-25 5 -56 12 -70 14 -57 11 -182 36 -222 45 -24 6 -97 22 -163 37 -66 14 -158
35 -205 46 -47 11 -93 22 -102 24 -186 42 -635 165 -843 231 -343 108 -825
283 -980 358 -16 7 -82 37 -145 66 -127 57 -378 182 -480 239 -36 21 -85 48
-110 62 -56 31 -253 151 -260 158 -3 3 -13 10 -22 15 -96 56 -373 258 -513
374 -220 182 -452 407 -640 621 -47 54 -228 281 -255 320 -13 19 -27 37 -31
40 -8 7 -241 354 -267 400 -11 19 -53 91 -93 160 -118 204 -271 517 -398 815
-5 11 -16 36 -24 55 -71 162 -235 628 -321 910 -44 145 -135 477 -175 640 -37
154 -88 366 -95 400 -3 14 -15 68 -26 120 -12 52 -30 140 -41 195 -11 55 -22
111 -25 125 -34 169 -55 281 -68 355 -9 50 -18 101 -21 115 -3 14 -10 52 -15
85 -12 74 -19 112 -25 145 -3 14 -7 43 -10 65 -3 22 -8 51 -11 65 -10 56 -12
67 -18 115 -6 46 -13 87 -22 140 -2 11 -6 40 -9 65 -3 25 -8 56 -11 70 -6 32
-11 62 -19 123 -4 27 -8 56 -10 65 -1 10 -8 60 -15 112 -7 52 -14 103 -16 114
-2 10 -6 44 -9 75 -4 31 -8 63 -10 71 -2 8 -6 38 -10 65 -3 28 -8 66 -10 85
-3 19 -7 55 -10 80 -3 25 -7 56 -10 70 -2 14 -7 53 -10 88 -4 35 -8 73 -10 84
-3 12 -7 46 -10 77 -3 31 -7 65 -9 76 -2 11 -7 51 -11 89 -4 38 -8 79 -10 90
-2 12 -6 50 -9 86 -4 36 -8 76 -11 89 -2 13 -7 56 -10 95 -3 39 -8 78 -10 86
-2 8 -7 49 -10 90 -4 41 -8 86 -10 100 -2 14 -7 59 -10 100 -3 41 -8 86 -10
100 -2 14 -7 54 -10 90 -6 70 -12 135 -21 215 -3 28 -7 68 -9 90 -4 55 -15
171 -20 220 -5 51 -14 145 -20 215 -6 77 -15 176 -20 233 -3 26 -7 68 -10 95
-2 26 -7 79 -10 117 -9 116 -15 177 -20 239 -10 105 -59 171 -146 196 -42 12
-106 12 -139 -1z"/>
</g>
</svg>
